<?xml version="1.0" encoding="UTF-8" standalone="no"?>
<svg
   id="Outline"
   viewBox="0 0 24 24"
   width="512"
   height="512"
   version="1.1"
   sodipodi:docname="RRFB_2.svg"
   xml:space="preserve"
   inkscape:version="1.4 (86a8ad7, 2024-10-11)"
   inkscape:export-filename="LPI_2.png"
   inkscape:export-xdpi="96"
   inkscape:export-ydpi="96"
   xmlns:inkscape="http://www.inkscape.org/namespaces/inkscape"
   xmlns:sodipodi="http://sodipodi.sourceforge.net/DTD/sodipodi-0.dtd"
   xmlns="http://www.w3.org/2000/svg"
   xmlns:svg="http://www.w3.org/2000/svg"><defs
     id="defs1" /><sodipodi:namedview
     id="namedview1"
     pagecolor="#ffffff"
     bordercolor="#000000"
     borderopacity="0.25"
     inkscape:showpageshadow="2"
     inkscape:pageopacity="0.0"
     inkscape:pagecheckerboard="0"
     inkscape:deskcolor="#d1d1d1"
     inkscape:zoom="1.1255704"
     inkscape:cx="129.54841"
     inkscape:cy="197.87708"
     inkscape:window-width="1920"
     inkscape:window-height="1017"
     inkscape:window-x="-8"
     inkscape:window-y="-8"
     inkscape:window-maximized="1"
     inkscape:current-layer="Outline"
     inkscape:rotation="-2" /><path
     d="M 18.169404,-0.9105339 8.269909,-10.810029 a 5,5 0 0 0 -7.0710679,0 l -9.8994949,9.8994951 a 5,5 0 0 0 0,7.0710679 l 9.8994949,9.899495 a 5,5 0 0 0 7.0710679,0 l 9.899495,-9.899495 a 5,5 0 0 0 0,-7.0710679 z M 6.855695,14.645815 a 3,3 0 0 1 -4.2426403,0 L -7.2864403,4.74632 a 3,3 0 0 1 0,-4.2426403 l 9.899495,-9.899495 a 3,3 0 0 1 4.2426403,0 l 9.899495,9.899495 a 3,3 0 0 1 0,4.2426403 z"
     id="path1"
     style="fill:#343434;fill-opacity:1" /><path
     d="m 3.327405,-3.8464426 c 0,-0.9407122 0.762132,-1.702814 1.702815,-1.702814 0.940566,0 1.702799,0.7621309 1.702799,1.702814 0,0.9405669 -0.762131,1.7027995 -1.702799,1.7027995 -0.940567,0 -1.702815,-0.7621309 -1.702815,-1.7027995 z M 10.74825,3.812094 c -0.120604,0.239029 -0.359633,0.376632 -0.610287,0.376632 -0.101713,0 -0.206333,-0.02326 -0.303835,-0.0712 L 7.898388,3.149644 C 7.452881,2.926891 7.076247,2.586293 6.810627,2.164033 L 6.474098,1.630033 5.515077,5.237258 6.380085,5.728394 C 7.018269,6.091368 7.414082,6.771838 7.414082,7.50543 v 2.612794 c 0,0.375907 -0.304415,0.68105 -0.681048,0.68105 -0.376634,0 -0.68105,-0.305143 -0.68105,-0.68105 V 7.50543 c 0,-0.244551 -0.132229,-0.471373 -0.344666,-0.592559 L 2.99849,5.37489 C 2.2165978,4.930835 1.8133731,4.008577 2.0184001,3.132642 L 2.7171776,0.1459172 C 2.5762305,0.1982274 2.437899,0.2563499 2.3037815,0.3230454 L 0.8754218,1.037516 C 0.7003279,1.124696 0.5715866,1.282793 0.5218919,1.472126 L -0.0113818,3.482118 C -0.1087368,3.84582 -0.4807206,4.061017 -0.844422,3.965697 -1.2081234,3.868337 -1.4247749,3.496358 -1.328001,3.132656 L -0.7947273,1.122665 C -0.6441902,0.5559712 -0.2573851,0.0805293 0.2671702,-0.1810217 L 1.6948033,-0.8954922 C 2.4351383,-1.2652963 3.263428,-1.4608784 4.090989,-1.4608784 h 0.598662 c 1.366313,0 2.229316,1.2457097 2.266107,1.2988917 L 7.963893,1.439345 c 0.132229,0.21113 0.320109,0.381429 0.542864,0.492444 l 1.936437,0.96861 c 0.336529,0.168264 0.472681,0.577592 0.304416,0.914121 z M 4.319803,4.556642 5.455225,0.2185702 C 5.254267,0.0564086 4.986613,-0.099505 4.689608,-0.099505 H 4.173335 L 3.344363,3.442334 c -0.06829,0.291483 0.06539,0.59866 0.326938,0.747163 l 0.647775,0.36777 z M 2.77639,6.619757 C 2.77099,6.616357 2.76549,6.612957 2.76041,6.610257 2.3734595,6.378639 1.8721533,6.589907 1.770003,7.029756 L 1.6653828,7.479926 0.5687571,9.831168 c -0.2098221,0.450159 0.1191511,0.966577 0.6156623,0.966577 0.2628589,0 0.502614,-0.151845 0.615081,-0.390292 L 2.926059,8.013973 3.081392,7.337572 C 3.146782,7.056986 3.023262,6.766809 2.775522,6.619034 Z"
     id="path1-4"
     style="fill:#343434;fill-opacity:1;stroke:#343434;stroke-width:0.5625;stroke-dasharray:none;stroke-opacity:1" /><path
     d="M 15.28877,19.076765 H 9.329832 a 2.1281921,1.5791153 0 0 0 -2.128193,1.579116 v 1.263292 a 2.1281921,1.5791153 0 0 0 2.128193,1.579116 h 5.958938 a 2.1281921,1.5791153 0 0 0 2.128192,-1.579116 V 20.655881 A 2.1281921,1.5791153 0 0 0 15.28877,19.076765 Z m 1.276915,2.842408 a 1.2769152,0.94746918 0 0 1 -1.276915,0.94747 H 9.329832 a 1.2769152,0.94746918 0 0 1 -1.276916,-0.94747 v -1.263292 a 1.2769152,0.94746918 0 0 1 1.276916,-0.947468 h 5.958938 a 1.2769152,0.94746918 0 0 1 1.276915,0.947468 z"
     id="path1-8"
     style="fill:#000000;fill-opacity:1;stroke:#343434;stroke-width:0.990094;stroke-linecap:round;stroke-dasharray:none;stroke-opacity:1" /><path
     style="fill:#000000;fill-opacity:1;stroke:#343434;stroke-width:5.41406;stroke-linecap:square;stroke-linejoin:miter;stroke-dasharray:none;stroke-opacity:1"
     d="M 5.358587,21.291336 H -7.7181166"
     id="path2" /><path
     style="fill:#000000;fill-opacity:1;stroke:#343434;stroke-width:1.51767;stroke-linecap:round;stroke-linejoin:round;stroke-dasharray:none;stroke-opacity:1"
     d="M 21.1439,21.235994 H 20.116342"
     id="path2-42" /><path
     style="fill:#000000;fill-opacity:1;stroke:#343434;stroke-width:1.51767;stroke-linecap:round;stroke-linejoin:round;stroke-dasharray:none;stroke-opacity:1"
     d="m 15.430293,16.320774 v -1.02756"
     id="path2-42-9" /><path
     style="fill:#000000;fill-opacity:1;stroke:#343434;stroke-width:1.51767;stroke-linecap:round;stroke-linejoin:round;stroke-dasharray:none;stroke-opacity:1"
     d="m 18.954298,17.78199 0.726594,-0.726594"
     id="path2-42-2" /><path
     style="fill:#000000;fill-opacity:1;stroke:#343434;stroke-width:2.8125;stroke-linecap:square;stroke-linejoin:miter;stroke-dasharray:none;stroke-opacity:1"
     d="M 4.9331172,30.126545 V 17.049841"
     id="path2-4" /><path
     style="fill:#000000;fill-opacity:1;stroke:#343434;stroke-width:1.30532;stroke-linecap:square;stroke-linejoin:miter;stroke-dasharray:none;stroke-opacity:1"
     d="M 6.2508712,23.356163 H 9.0676077"
     id="path2-4-1" /><path
     style="fill:#000000;fill-opacity:1;stroke:#343434;stroke-width:1.30532;stroke-linecap:square;stroke-linejoin:miter;stroke-dasharray:none;stroke-opacity:1"
     d="m 6.0212136,19.222237 h 2.816737"
     id="path2-4-1-1" /></svg>
